<svg width="371.192" height="93.018" viewBox="0 0 371.192 93.018" xmlns="http://www.w3.org/2000/svg"><g id="svgGroup" stroke-linecap="round" fill-rule="evenodd" font-size="9pt" stroke="#000" stroke-width="0.25mm" fill="#2a3d45" style="stroke:#000;stroke-width:0.25mm;fill:#2a3d45"><path d="M 114.112 88.965 L 101.27 92.236 Q 100.733 92.383 99.854 92.7 A 5.412 5.412 0 0 1 98.828 92.965 A 4.545 4.545 0 0 1 98.145 93.018 Q 97.461 93.018 96.949 92.676 Q 96.539 92.403 96.457 91.755 A 2.774 2.774 0 0 1 96.436 91.406 L 102.393 19.922 Q 102.536 18.352 102.748 17.732 A 2.179 2.179 0 0 1 102.759 17.7 A 1.094 1.094 0 0 1 103.243 17.127 Q 103.494 16.975 103.858 16.895 Q 108.301 16.016 112.989 15.112 A 79.734 79.734 0 0 0 122.12 12.793 Q 122.46 12.793 122.559 12.885 A 0.136 0.136 0 0 1 122.584 12.915 A 0.42 0.42 0 0 1 122.625 13.013 Q 122.654 13.11 122.656 13.25 A 1.548 1.548 0 0 1 122.657 13.281 Q 122.657 13.357 122.642 13.491 A 5.357 5.357 0 0 1 122.632 13.574 A 3.996 3.996 0 0 1 122.62 13.665 Q 122.586 13.889 122.493 14.412 A 89.913 89.913 0 0 1 122.486 14.453 Q 122.364 15.135 122.145 16.522 A 115.9 115.9 0 0 0 122.144 16.528 A 2070.409 2070.409 0 0 0 122.024 17.293 Q 121.827 18.543 121.534 20.41 A 39.905 39.905 0 0 1 130.127 15.967 Q 134.62 14.307 139.502 14.307 A 18.838 18.838 0 0 1 143.406 14.693 A 14.149 14.149 0 0 1 147.437 16.187 Q 150.782 18.066 152.979 21.265 A 21.914 21.914 0 0 1 155.712 26.843 A 25.971 25.971 0 0 1 156.226 28.613 A 35.107 35.107 0 0 1 157.272 36.739 A 38.973 38.973 0 0 1 157.276 37.305 A 42.232 42.232 0 0 1 156.495 45.313 A 42.932 42.932 0 0 1 154.2 53.149 A 37.483 37.483 0 0 1 150.44 60.254 Q 148.194 63.574 145.289 66.04 Q 142.383 68.506 138.819 69.922 A 20.333 20.333 0 0 1 132.26 71.31 A 23.637 23.637 0 0 1 131.104 71.338 A 17.282 17.282 0 0 1 124.097 69.873 Q 120.752 68.408 117.823 66.064 A 3.19 3.19 0 0 1 117.819 66.202 Q 117.803 66.526 117.734 67.426 A 203.618 203.618 0 0 1 117.701 67.847 Q 117.579 69.385 117.383 71.582 Q 117.188 73.779 116.944 76.294 Q 116.7 78.809 116.504 81.006 A 559.989 559.989 0 0 0 116.368 82.561 Q 116.316 83.171 116.271 83.716 A 277.108 277.108 0 0 0 116.187 84.741 Q 116.078 86.111 116.066 86.455 A 2.07 2.07 0 0 0 116.065 86.523 A 10.422 10.422 0 0 0 116.068 86.799 Q 116.074 87.015 116.089 87.183 A 5.914 5.914 0 0 1 116.112 87.556 A 5.093 5.093 0 0 1 116.114 87.695 A 0.749 0.749 0 0 1 115.881 88.24 A 1.133 1.133 0 0 1 115.748 88.355 A 1.512 1.512 0 0 1 115.526 88.484 Q 115.084 88.703 114.112 88.965 Z M 303.907 31.152 L 294.825 31.152 A 763.785 763.785 0 0 0 293.531 41.382 A 121.915 121.915 0 0 0 292.97 47.209 A 98.021 98.021 0 0 0 292.774 50.928 Q 292.774 52.343 292.936 53.407 A 9.317 9.317 0 0 0 293.067 54.102 Q 293.36 55.371 293.921 56.104 A 3.411 3.411 0 0 0 294.66 56.823 A 3.008 3.008 0 0 0 295.264 57.153 Q 296.045 57.471 297.022 57.471 A 12.175 12.175 0 0 0 298.658 57.355 Q 299.512 57.239 300.44 57.007 A 29.767 29.767 0 0 0 304.151 55.811 Q 304.588 55.629 304.929 55.514 A 6.442 6.442 0 0 1 305.152 55.444 A 3.731 3.731 0 0 1 305.434 55.372 Q 305.672 55.322 305.86 55.322 Q 306.348 55.322 306.519 55.762 A 2.926 2.926 0 0 1 306.605 56.023 Q 306.731 56.471 306.858 57.282 A 24.081 24.081 0 0 1 306.861 57.3 A 60.352 60.352 0 0 0 306.957 57.896 Q 307.117 58.862 307.374 60.254 Q 307.603 61.501 308.031 63.188 A 87.636 87.636 0 0 0 308.497 64.941 Q 308.545 65.186 308.57 65.356 A 2.51 2.51 0 0 1 308.59 65.541 A 1.961 1.961 0 0 1 308.594 65.674 A 1.42 1.42 0 0 1 308.545 66.059 A 0.956 0.956 0 0 1 308.082 66.65 A 4.169 4.169 0 0 1 307.784 66.803 Q 307.439 66.965 306.922 67.152 A 21.603 21.603 0 0 1 306.397 67.334 A 201.503 201.503 0 0 1 304.34 68.024 A 233.173 233.173 0 0 1 302.173 68.726 A 101.576 101.576 0 0 1 297.779 70.02 Q 295.606 70.606 293.604 70.972 Q 291.936 71.277 290.608 71.328 A 13.558 13.558 0 0 1 290.088 71.338 A 25.932 25.932 0 0 1 285.743 70.999 Q 280.854 70.166 278.199 67.285 A 12.53 12.53 0 0 1 275.645 62.926 Q 274.962 61.004 274.674 58.632 A 30.719 30.719 0 0 1 274.463 54.932 Q 274.463 53.516 274.561 52.026 A 119.982 119.982 0 0 1 274.735 49.724 A 135.291 135.291 0 0 1 274.805 48.926 A 630.384 630.384 0 0 0 275.263 44.171 A 532.627 532.627 0 0 0 275.66 39.673 A 637.154 637.154 0 0 1 276.223 33.324 A 559.167 559.167 0 0 1 276.417 31.299 L 271.29 31.299 A 50.933 50.933 0 0 1 270.063 31.285 Q 268.919 31.257 268.146 31.174 A 8.762 8.762 0 0 1 267.481 31.079 Q 266.652 30.924 266.409 30.536 A 0.665 0.665 0 0 1 266.309 30.176 A 0.393 0.393 0 0 1 266.329 30.069 Q 266.406 29.816 266.771 29.172 A 19.263 19.263 0 0 1 266.797 29.126 Q 267.286 28.272 268.043 27.075 A 379.02 379.02 0 0 1 268.83 25.836 A 466.205 466.205 0 0 1 269.678 24.512 Q 270.557 23.145 271.363 21.948 A 718.597 718.597 0 0 0 271.936 21.096 Q 272.388 20.422 272.754 19.873 A 131.429 131.429 0 0 1 272.959 19.568 Q 273.335 19.006 273.466 18.827 A 2.752 2.752 0 0 1 273.487 18.799 L 276.954 18.799 A 849.674 849.674 0 0 0 277.163 17.018 Q 277.46 14.459 277.662 12.573 A 1763.149 1763.149 0 0 0 277.79 11.369 Q 277.961 9.758 278.084 8.566 A 606.348 606.348 0 0 0 278.101 8.398 Q 278.272 6.738 278.419 5.835 A 13.696 13.696 0 0 1 278.503 5.364 Q 278.587 4.938 278.679 4.653 A 2.9 2.9 0 0 1 278.736 4.492 A 1.704 1.704 0 0 1 278.84 4.27 Q 278.982 4.018 279.175 3.931 Q 279.358 3.848 279.619 3.776 A 5.572 5.572 0 0 1 279.883 3.711 A 215.02 215.02 0 0 1 283.097 3.093 A 192.603 192.603 0 0 1 284.131 2.905 A 362.28 362.28 0 0 0 288.233 2.148 A 87.87 87.87 0 0 0 292.408 1.245 A 84.138 84.138 0 0 0 295.69 0.38 A 96.442 96.442 0 0 0 296.827 0.049 A 1.399 1.399 0 0 0 296.886 0.048 Q 296.984 0.044 297.022 0.024 Q 297.067 0.002 297.197 0 A 1.633 1.633 0 0 1 297.217 0 A 1.3 1.3 0 0 1 297.424 0.015 Q 297.786 0.074 297.802 0.362 A 0.493 0.493 0 0 1 297.803 0.391 L 297.803 0.488 Q 297.559 3.174 297.046 7.959 A 3997.436 3997.436 0 0 0 296.539 12.724 Q 296.274 15.225 295.983 18 A 6632.136 6632.136 0 0 0 295.899 18.799 L 308.985 18.799 A 1.182 1.182 0 0 1 309.534 18.938 A 1.579 1.579 0 0 1 309.742 19.067 A 0.831 0.831 0 0 1 310.037 19.482 Q 310.108 19.691 310.108 19.971 Q 310.108 20.179 309.683 21.306 A 48.978 48.978 0 0 1 309.522 21.729 Q 308.936 23.242 307.862 25.684 L 306.104 29.639 Q 305.77 30.354 305.413 30.697 A 1.688 1.688 0 0 1 305.396 30.713 A 1.032 1.032 0 0 1 305.13 30.886 Q 304.851 31.018 304.394 31.093 A 6.483 6.483 0 0 1 303.907 31.152 Z M 35.237 14.918 A 21.477 21.477 0 0 0 30.03 14.307 A 34.951 34.951 0 0 0 27.178 14.421 A 29.216 29.216 0 0 0 17.872 16.699 A 28.949 28.949 0 0 0 8.375 23.242 A 29.502 29.502 0 0 0 2.198 32.983 A 30.833 30.833 0 0 0 1.536 34.84 A 32.953 32.953 0 0 0 0.001 44.971 A 29.953 29.953 0 0 0 0.182 48.307 A 24.183 24.183 0 0 0 2.295 55.957 A 25.516 25.516 0 0 0 8.423 64.258 A 27.275 27.275 0 0 0 17.212 69.507 A 29.289 29.289 0 0 0 27.442 71.338 A 18.363 18.363 0 0 0 28.227 71.32 Q 29.557 71.264 31.202 71.021 A 44.217 44.217 0 0 0 32.285 70.847 A 50.164 50.164 0 0 0 35.645 70.142 Q 37.94 69.58 40.162 68.897 A 48.912 48.912 0 0 0 42.261 68.201 A 35.636 35.636 0 0 0 44.117 67.481 A 29.105 29.105 0 0 0 45.015 67.084 Q 45.561 66.831 46.026 66.584 A 13.291 13.291 0 0 0 46.924 66.064 Q 47.638 65.611 47.877 65.2 A 0.802 0.802 0 0 0 47.999 64.795 A 0.944 0.944 0 0 0 47.998 64.773 Q 47.995 64.631 47.95 64.404 A 1.377 1.377 0 0 0 47.888 64.191 A 1.683 1.683 0 0 0 47.754 63.916 Q 47.803 61.475 47.828 59.473 A 403.152 403.152 0 0 0 47.841 58.279 Q 47.846 57.71 47.849 57.199 A 205.273 205.273 0 0 0 47.852 56.055 A 139.592 139.592 0 0 1 47.853 55.426 Q 47.856 54.772 47.866 54.288 A 36.834 36.834 0 0 1 47.877 53.857 L 47.901 53.076 A 2.445 2.445 0 0 0 47.711 53.084 A 2.857 2.857 0 0 0 47.291 53.149 A 68.987 68.987 0 0 1 47.08 53.198 Q 46.836 53.253 46.534 53.32 A 81.703 81.703 0 0 1 45.691 53.735 A 93.728 93.728 0 0 1 43.018 54.981 Q 41.163 55.811 39.161 56.494 Q 37.159 57.178 34.986 57.593 A 22.344 22.344 0 0 1 34.714 57.643 A 24.155 24.155 0 0 1 30.469 58.008 Q 28.37 58.008 26.392 57.544 Q 24.415 57.08 22.852 56.104 Q 21.29 55.127 20.264 53.613 A 6.856 6.856 0 0 1 19.446 51.953 A 8.564 8.564 0 0 1 19.044 50 A 38.724 38.724 0 0 0 21.029 50.309 A 32.66 32.66 0 0 0 25.196 50.586 A 38.498 38.498 0 0 0 28.781 50.423 A 31.28 31.28 0 0 0 35.499 49.072 A 33.139 33.139 0 0 0 39.15 47.66 A 25.355 25.355 0 0 0 43.531 45.117 Q 46.876 42.676 48.731 39.624 A 14.173 14.173 0 0 0 49.787 37.529 A 10.658 10.658 0 0 0 50.586 33.545 A 16.076 16.076 0 0 0 50.443 31.409 A 17.957 17.957 0 0 0 49.122 26.709 Q 47.657 23.291 44.947 20.532 A 20.265 20.265 0 0 0 43.525 19.217 A 22.217 22.217 0 0 0 38.453 16.04 A 18.36 18.36 0 0 0 35.237 14.918 Z M 57.569 68.652 L 56.934 55.322 A 0.156 0.156 0 0 0 56.932 55.295 Q 56.929 55.28 56.923 55.268 A 0.072 0.072 0 0 0 56.91 55.249 Q 56.889 55.229 56.886 55.192 A 0.172 0.172 0 0 1 56.885 55.176 A 0.843 0.843 0 0 1 56.922 54.917 Q 57.01 54.644 57.311 54.569 A 1.075 1.075 0 0 1 57.569 54.541 Q 58.008 54.541 58.35 54.883 A 16.641 16.641 0 0 0 62.818 57.91 A 12.687 12.687 0 0 0 68.08 59.081 A 14.552 14.552 0 0 0 68.262 59.082 Q 69.044 59.082 70.069 58.911 A 8.7 8.7 0 0 0 72.022 58.35 A 4.722 4.722 0 0 0 73 57.8 A 3.999 3.999 0 0 0 73.56 57.3 A 2.276 2.276 0 0 0 74.165 55.848 A 2.986 2.986 0 0 0 74.17 55.664 Q 74.17 54.59 73.633 53.687 Q 73.096 52.783 72.217 52.197 L 70.508 51.001 A 2461.79 2461.79 0 0 1 69.245 50.116 A 2999.582 2999.582 0 0 1 67.896 49.17 A 1269.639 1269.639 0 0 1 66.541 48.218 A 1077.796 1077.796 0 0 1 65.259 47.314 Q 64.113 46.505 63.608 46.11 A 10.08 10.08 0 0 1 63.526 46.045 A 22.02 22.02 0 0 1 61.776 44.583 Q 60.953 43.814 60.318 43.036 A 12.729 12.729 0 0 1 60.035 42.676 A 14.54 14.54 0 0 1 58.517 40.212 A 12.763 12.763 0 0 1 58.057 39.136 A 15.103 15.103 0 0 1 57.178 35.303 A 41.607 41.607 0 0 1 57.002 32.435 A 49.085 49.085 0 0 1 56.983 31.055 Q 56.983 27.637 58.79 24.609 A 19.046 19.046 0 0 1 63.276 19.504 A 21.641 21.641 0 0 1 63.55 19.287 A 23.823 23.823 0 0 1 69.682 15.865 A 26.956 26.956 0 0 1 70.264 15.649 A 22.636 22.636 0 0 1 77.93 14.307 A 21.165 21.165 0 0 1 84.278 15.283 A 15.756 15.756 0 0 1 89.238 17.905 A 18.582 18.582 0 0 1 90.088 18.604 A 130.653 130.653 0 0 1 90.43 24.658 A 217.236 217.236 0 0 0 90.552 27.71 A 250.516 250.516 0 0 0 90.723 30.908 Q 90.723 31.456 90.505 31.695 A 0.541 0.541 0 0 1 90.43 31.763 A 1.099 1.099 0 0 1 89.789 31.982 A 1.361 1.361 0 0 1 89.747 31.982 A 0.798 0.798 0 0 1 89.168 31.746 A 0.978 0.978 0 0 1 89.161 31.738 A 95.712 95.712 0 0 0 86.866 29.614 Q 85.694 28.564 84.4 27.759 A 13.871 13.871 0 0 0 81.641 26.44 A 9.294 9.294 0 0 0 78.826 25.932 A 10.579 10.579 0 0 0 78.516 25.928 Q 77.491 25.928 76.465 26.099 Q 75.44 26.27 74.61 26.733 Q 73.78 27.197 73.267 27.979 Q 72.754 28.76 72.754 29.981 Q 72.754 31.186 73.002 32.109 A 5.513 5.513 0 0 0 73.096 32.422 Q 73.358 33.206 74.162 33.962 A 7.262 7.262 0 0 0 74.708 34.424 L 83.79 40.576 A 32.164 32.164 0 0 1 85.656 41.953 Q 86.553 42.669 87.278 43.373 A 16.948 16.948 0 0 1 87.818 43.921 A 18.648 18.648 0 0 1 89.172 45.525 A 13.748 13.748 0 0 1 90.235 47.168 Q 91.114 48.779 91.431 50.366 A 16.026 16.026 0 0 1 91.749 53.516 A 16.16 16.16 0 0 1 91.193 57.829 A 13.513 13.513 0 0 1 89.722 61.255 Q 87.696 64.6 84.473 66.821 Q 81.251 69.043 77.173 70.19 Q 73.096 71.338 68.995 71.338 A 27.173 27.173 0 0 1 62.964 70.679 Q 60.059 70.02 57.569 68.652 Z M 218.311 13.477 L 213.282 58.984 A 1.696 1.696 0 0 0 213.243 59.191 A 1.325 1.325 0 0 0 213.233 59.351 L 213.233 59.668 A 6.301 6.301 0 0 0 213.288 60.525 Q 213.348 60.962 213.474 61.329 A 3.257 3.257 0 0 0 213.624 61.694 A 6.986 6.986 0 0 0 213.976 62.338 Q 214.215 62.722 214.478 63.013 A 10.451 10.451 0 0 0 214.843 63.397 Q 215.02 63.574 215.185 63.718 A 5.303 5.303 0 0 0 215.333 63.843 A 2.078 2.078 0 0 1 215.494 63.988 Q 215.649 64.143 215.699 64.279 A 0.362 0.362 0 0 1 215.723 64.404 A 0.748 0.748 0 0 1 215.542 64.873 Q 215.208 65.294 214.258 65.674 L 201.124 71.289 Q 201.075 71.338 200.782 71.338 A 0.527 0.527 0 0 1 200.495 71.246 Q 200.248 71.087 200.001 70.654 A 7.563 7.563 0 0 1 199.711 70.09 Q 199.562 69.769 199.417 69.393 A 15.437 15.437 0 0 1 199.244 68.921 A 29.319 29.319 0 0 1 198.763 67.408 A 34.412 34.412 0 0 1 198.56 66.675 A 101.367 101.367 0 0 1 198.261 65.521 A 79.695 79.695 0 0 1 197.999 64.453 A 23.402 23.402 0 0 1 195.007 67.376 A 17.683 17.683 0 0 1 191.358 69.678 A 17.973 17.973 0 0 1 187.198 71.053 A 15.268 15.268 0 0 1 184.278 71.338 Q 180.176 71.338 176.27 69.531 A 21.428 21.428 0 0 1 169.336 64.38 A 24.429 24.429 0 0 1 165.603 58.853 A 29.747 29.747 0 0 1 164.478 56.299 A 27.014 27.014 0 0 1 162.884 49.75 A 34.387 34.387 0 0 1 162.647 45.654 A 41.887 41.887 0 0 1 163.288 38.185 A 34.281 34.281 0 0 1 164.673 32.91 A 34.261 34.261 0 0 1 167.588 26.636 A 28.637 28.637 0 0 1 170.167 22.998 A 24.64 24.64 0 0 1 178.248 16.577 Q 182.862 14.307 188.038 14.307 A 16.541 16.541 0 0 1 194.971 15.796 A 29.422 29.422 0 0 1 201.172 19.629 A 29.271 29.271 0 0 0 201.332 18.771 Q 201.465 17.982 201.506 17.416 A 7.891 7.891 0 0 0 201.514 17.285 A 8.739 8.739 0 0 1 201.557 16.774 Q 201.616 16.254 201.734 15.918 Q 201.902 15.438 202.377 15.264 A 1.312 1.312 0 0 1 202.393 15.259 A 2.908 2.908 0 0 1 202.697 15.173 Q 203.18 15.062 204.004 14.99 A 358.983 358.983 0 0 1 211.011 14.087 Q 214.502 13.672 218.311 13.477 Z M 267.335 13.916 L 264.307 29.053 Q 263.282 28.955 262.012 28.833 A 26.751 26.751 0 0 0 260.197 28.723 A 31.293 31.293 0 0 0 259.327 28.711 Q 257.178 28.711 254.957 29.077 A 12.449 12.449 0 0 0 250.831 30.518 A 10.187 10.187 0 0 0 247.732 33.24 A 11.742 11.742 0 0 0 247.559 33.472 A 8.631 8.631 0 0 0 246.436 35.626 Q 246.079 36.613 245.883 37.781 A 15.53 15.53 0 0 0 245.801 38.33 Q 245.496 41.562 245.287 43.759 A 22006.322 22006.322 0 0 1 245.24 44.263 A 218.594 218.594 0 0 0 245.138 45.371 Q 245.016 46.732 244.944 47.748 A 72.039 72.039 0 0 0 244.922 48.071 A 273.875 273.875 0 0 1 244.875 48.779 Q 244.816 49.645 244.767 50.267 A 78.908 78.908 0 0 1 244.752 50.464 A 102.276 102.276 0 0 0 244.684 51.337 A 82.126 82.126 0 0 0 244.629 52.148 A 2.406 2.406 0 0 1 244.627 52.246 Q 244.616 52.509 244.556 53.223 A 38.414 38.414 0 0 1 244.491 53.923 Q 244.428 54.541 244.336 55.273 A 64.82 64.82 0 0 0 244.196 56.494 A 81.202 81.202 0 0 0 244.068 57.813 A 81.202 81.202 0 0 1 243.94 59.131 A 64.82 64.82 0 0 1 243.799 60.352 Q 243.699 61.157 243.633 61.824 A 37.289 37.289 0 0 0 243.58 62.402 A 76.289 76.289 0 0 0 243.555 62.708 Q 243.506 63.318 243.506 63.477 A 10.422 10.422 0 0 0 243.51 63.752 Q 243.516 63.968 243.531 64.136 A 5.914 5.914 0 0 1 243.553 64.509 A 5.093 5.093 0 0 1 243.555 64.648 A 0.749 0.749 0 0 1 243.323 65.194 A 1.133 1.133 0 0 1 243.189 65.308 A 1.512 1.512 0 0 1 242.968 65.438 Q 242.525 65.656 241.553 65.918 L 228.614 70.557 Q 228.077 70.752 227.198 71.045 A 5.747 5.747 0 0 1 226.118 71.297 A 4.897 4.897 0 0 1 225.489 71.338 Q 224.805 71.338 224.293 70.996 A 1.08 1.08 0 0 1 223.858 70.398 Q 223.78 70.149 223.78 69.824 L 227.979 21.436 Q 228.122 19.866 228.334 19.246 A 2.179 2.179 0 0 1 228.345 19.214 A 1.094 1.094 0 0 1 228.829 18.641 Q 229.08 18.489 229.444 18.408 Q 233.887 17.529 238.624 16.626 A 78.863 78.863 0 0 0 247.803 14.307 Q 248.143 14.307 248.243 14.399 A 0.136 0.136 0 0 1 248.267 14.429 A 0.42 0.42 0 0 1 248.309 14.527 Q 248.337 14.624 248.34 14.764 A 1.548 1.548 0 0 1 248.34 14.795 Q 248.34 14.871 248.326 15.005 A 5.357 5.357 0 0 1 248.316 15.088 A 3.996 3.996 0 0 1 248.303 15.178 Q 248.27 15.403 248.177 15.926 A 89.913 89.913 0 0 1 248.169 15.967 Q 248.048 16.649 247.829 18.036 A 115.9 115.9 0 0 0 247.828 18.042 A 2070.409 2070.409 0 0 0 247.707 18.806 Q 247.51 20.056 247.217 21.924 A 34.342 34.342 0 0 1 251.173 19.261 A 38.729 38.729 0 0 1 252.173 18.701 Q 254.883 17.236 257.618 16.187 A 45.236 45.236 0 0 1 260.959 15.046 A 38.082 38.082 0 0 1 262.891 14.526 Q 264.885 14.047 266.487 13.944 A 13.227 13.227 0 0 1 267.335 13.916 Z M 334.102 70.844 A 35.743 35.743 0 0 0 340.186 71.338 Q 346.583 71.338 352.222 69.263 A 28.817 28.817 0 0 0 362.085 63.232 A 26.738 26.738 0 0 0 364.115 61.111 A 29.049 29.049 0 0 0 368.751 53.564 A 29.126 29.126 0 0 0 370.543 47.664 A 37.074 37.074 0 0 0 371.192 40.576 Q 371.192 34.863 369.336 29.883 Q 367.481 24.902 363.379 21.24 Q 359.278 17.578 352.735 15.454 A 35.708 35.708 0 0 0 350.177 14.731 Q 347.254 14.017 343.856 13.667 A 68.362 68.362 0 0 0 336.866 13.33 A 0.566 0.566 0 0 0 336.593 13.399 A 0.72 0.72 0 0 0 336.426 13.525 Q 336.231 13.721 336.231 14.258 Q 336.231 14.471 336.279 14.733 A 4.424 4.424 0 0 0 336.353 15.064 A 3.543 3.543 0 0 1 336.427 15.422 A 4.187 4.187 0 0 1 336.475 16.064 A 0.196 0.196 0 0 1 336.438 16.181 Q 336.335 16.325 335.949 16.381 A 3.182 3.182 0 0 1 335.694 16.406 A 31.238 31.238 0 0 0 335.613 16.42 A 27.771 27.771 0 0 0 326.221 19.8 Q 321.924 22.314 318.848 26.05 Q 315.772 29.785 314.063 34.497 A 28.916 28.916 0 0 0 312.354 44.434 Q 312.354 49.658 314.112 54.517 Q 315.87 59.375 319.385 63.11 A 23.873 23.873 0 0 0 322.259 65.702 A 27.462 27.462 0 0 0 328.101 69.092 A 26.421 26.421 0 0 0 334.102 70.844 Z M 331.153 43.897 Q 331.153 46.533 331.714 49.121 A 15.213 15.213 0 0 0 333.039 52.867 A 13.924 13.924 0 0 0 333.57 53.809 Q 334.864 55.908 336.963 57.202 A 8.342 8.342 0 0 0 339.567 58.23 Q 340.772 58.496 342.188 58.496 A 10.365 10.365 0 0 0 344.263 58.205 A 8.059 8.059 0 0 0 346.119 57.495 A 9.911 9.911 0 0 0 349.024 55.151 Q 350.245 53.711 351.05 51.904 A 21.49 21.49 0 0 0 352.32 48.169 A 29.635 29.635 0 0 0 352.926 44.85 A 27.115 27.115 0 0 0 352.979 44.385 A 37.882 37.882 0 0 0 353.126 42.615 A 27.688 27.688 0 0 0 353.174 41.016 A 16.727 16.727 0 0 0 352.418 36.035 A 13.555 13.555 0 0 0 350.924 32.765 A 12.265 12.265 0 0 0 350.196 31.738 A 11.285 11.285 0 0 0 346.558 28.735 A 9.861 9.861 0 0 0 343.259 27.7 A 12.601 12.601 0 0 0 341.553 27.588 A 8.19 8.19 0 0 0 339.05 27.956 A 6.863 6.863 0 0 0 336.622 29.321 A 12.717 12.717 0 0 0 333.508 33.416 A 14.59 14.59 0 0 0 333.423 33.594 A 22.34 22.34 0 0 0 331.69 38.94 A 34.172 34.172 0 0 0 331.332 41.192 Q 331.198 42.289 331.164 43.262 A 18.364 18.364 0 0 0 331.153 43.897 Z M 120.704 33.984 L 120.557 34.717 Q 120.295 38.91 120.092 41.696 A 324.278 324.278 0 0 1 120.044 42.334 Q 119.825 45.264 119.678 47.095 Q 119.532 48.926 119.434 49.976 Q 119.336 51.025 119.288 51.953 A 12.094 12.094 0 0 0 121 55.045 A 10.627 10.627 0 0 0 122.608 56.714 A 7.869 7.869 0 0 0 127.406 58.534 A 10.003 10.003 0 0 0 127.881 58.545 Q 130.567 58.545 132.593 56.86 A 12.533 12.533 0 0 0 135.056 54.071 A 15.591 15.591 0 0 0 135.962 52.49 A 23 23 0 0 0 137.497 48.498 A 27.807 27.807 0 0 0 137.989 46.484 Q 138.672 43.164 138.672 39.893 A 27.366 27.366 0 0 0 138.509 36.841 A 22.281 22.281 0 0 0 138.209 34.912 A 16.312 16.312 0 0 0 137.65 32.832 A 12.092 12.092 0 0 0 136.817 30.933 A 8.322 8.322 0 0 0 135.7 29.35 A 6.814 6.814 0 0 0 134.498 28.296 A 5.438 5.438 0 0 0 132.038 27.393 A 6.982 6.982 0 0 0 131.202 27.344 A 8.319 8.319 0 0 0 128.197 27.917 A 9.451 9.451 0 0 0 128.101 27.954 Q 126.563 28.564 125.147 29.517 A 15.598 15.598 0 0 0 122.584 31.665 Q 121.445 32.852 120.715 33.966 A 11.802 11.802 0 0 0 120.704 33.984 Z M 196.631 55.029 L 198.682 40.576 Q 199.17 37.793 199.341 35.327 A 241.72 241.72 0 0 0 199.494 32.965 A 183.077 183.077 0 0 0 199.61 30.811 A 61.414 61.414 0 0 0 198.798 30.212 A 73.815 73.815 0 0 0 197.925 29.59 A 18.552 18.552 0 0 0 196.297 28.571 A 20.815 20.815 0 0 0 195.972 28.394 A 11.771 11.771 0 0 0 193.775 27.49 A 8.372 8.372 0 0 0 191.516 27.15 A 9.347 9.347 0 0 0 191.358 27.148 Q 188.721 27.148 186.939 28.857 A 12.58 12.58 0 0 0 184.572 32.005 A 14.968 14.968 0 0 0 184.058 33.057 Q 182.96 35.547 182.496 38.33 Q 182.097 40.722 182.041 42.644 A 21.174 21.174 0 0 0 182.032 43.262 A 46.834 46.834 0 0 0 182.183 47.172 Q 182.508 51.035 183.53 53.479 A 10.257 10.257 0 0 0 184.058 54.565 A 8.406 8.406 0 0 0 185.48 56.458 A 5.807 5.807 0 0 0 189.698 58.154 A 6.183 6.183 0 0 0 191.095 57.984 Q 191.732 57.836 192.422 57.56 A 11.977 11.977 0 0 0 192.969 57.324 A 16.307 16.307 0 0 0 195.017 56.19 A 21.203 21.203 0 0 0 196.631 55.029 Z M 29.444 27.295 A 8.166 8.166 0 0 0 26.455 27.838 A 7.781 7.781 0 0 0 25.757 28.149 A 9.849 9.849 0 0 0 23.407 29.832 A 11.909 11.909 0 0 0 22.681 30.591 A 14.47 14.47 0 0 0 21.085 32.822 A 18.192 18.192 0 0 0 20.264 34.399 A 24.452 24.452 0 0 0 19.051 37.634 A 29.395 29.395 0 0 0 18.604 39.307 Q 22.241 38.671 24.984 37.984 A 50.167 50.167 0 0 0 26.954 37.451 Q 29.184 36.795 30.82 36.128 A 20.995 20.995 0 0 0 32.276 35.474 A 15.42 15.42 0 0 0 33.361 34.879 Q 34.402 34.25 34.978 33.62 A 3.998 3.998 0 0 0 35.108 33.472 Q 35.693 32.767 35.865 32.098 A 2.211 2.211 0 0 0 35.938 31.543 A 2.373 2.373 0 0 0 35.583 30.305 A 3.238 3.238 0 0 0 35.279 29.883 A 6.198 6.198 0 0 0 34.126 28.831 A 7.412 7.412 0 0 0 33.643 28.516 A 8.521 8.521 0 0 0 31.519 27.612 A 9.722 9.722 0 0 0 30.557 27.395 Q 29.966 27.295 29.444 27.295 Z" vector-effect="non-scaling-stroke"/></g></svg>
